<?xml version="1.0" encoding="UTF-8"?>
<svg version="1.1" xmlns="http://www.w3.org/2000/svg" width="500" height="500">
<path d="M0 0 C5.01301697 3.54579249 9.67568745 7.67680411 11.0065918 13.88354492 C11.92572648 20.85582789 10.7566292 26.29539938 8.625 32.9375 C8.33431641 33.89398438 8.04363281 34.85046875 7.74414062 35.8359375 C7.03315765 38.16702921 6.30592074 40.49159234 5.5625 42.8125 C6.43390625 43.05871094 7.3053125 43.30492187 8.203125 43.55859375 C22.80989085 49.01065403 37.90925795 64.5666854 44.6171875 78.515625 C47.0071969 84.32275529 47.53825497 90.04786092 45.4375 96 C42.61549253 100.23301121 39.48521008 103.17159664 34.5625 104.8125 C28.97785665 105.25051124 24.37349638 104.69538993 19.5625 101.8125 C15.04918395 97.73683884 11.55432073 92.80853589 7.94873047 87.94091797 C-2.72927823 73.62502788 -15.82734787 66.0900434 -33.4375 62.8125 C-41.41573733 62.14073573 -48.73062752 62.68646621 -56.4375 64.8125 C-56.53933594 65.75996094 -56.64117187 66.70742187 -56.74609375 67.68359375 C-57.57230358 73.4758055 -59.56069572 78.96681079 -61.35351562 84.51757812 C-63.47286531 91.04058982 -63.47286531 91.04058982 -63.4375 97.8125 C-61.82355009 100.36921122 -61.82355009 100.36921122 -59.5 102.625 C-58.66984375 103.48867187 -57.8396875 104.35234375 -56.984375 105.2421875 C-56.14390625 106.09039062 -55.3034375 106.93859375 -54.4375 107.8125 C-53.74140625 108.55757813 -53.0453125 109.30265625 -52.328125 110.0703125 C-47.48270063 115.15254332 -42.21797611 119.45217536 -36.66796875 123.72192383 C-32.20480965 127.1650872 -28.01003814 130.81573 -23.86328125 134.63671875 C-21.29315714 136.94196694 -18.63506546 139.09572045 -15.9375 141.25 C-1.65351593 152.90219516 14.21711246 169.5353421 16.5625 188.8125 C17.84305898 205.99169117 12.51445779 221.05226654 1.25 234.1875 C-10.29804345 246.2435792 -27.11996533 254.37441898 -43.97485352 254.89013672 C-46.92140977 254.91075432 -49.86598336 254.89971272 -52.8125 254.875 C-53.83472656 254.87048828 -54.85695313 254.86597656 -55.91015625 254.86132812 C-58.41933194 254.849603 -60.9283849 254.83319176 -63.4375 254.8125 C-63.72415527 255.71959717 -63.72415527 255.71959717 -64.01660156 256.64501953 C-64.8971962 259.4123756 -65.79220238 262.17486734 -66.6875 264.9375 C-66.98785156 265.88882812 -67.28820312 266.84015625 -67.59765625 267.8203125 C-70.06513133 275.38023616 -72.58947439 281.24714959 -79.4375 285.8125 C-85.71588179 288.54223121 -91.07446145 288.48966899 -97.5 286.3125 C-103.63020186 283.65328002 -106.72296487 279.76402517 -109.34765625 273.71484375 C-111.36735546 267.05104577 -109.45115961 261.27299125 -107.4375 254.8125 C-106.87474151 252.95841177 -106.31222188 251.10425102 -105.75 249.25 C-105.49863281 248.46496094 -105.24726563 247.67992187 -104.98828125 246.87109375 C-104.3082694 244.68465613 -104.3082694 244.68465613 -104.4375 241.8125 C-105.4275 241.4825 -106.4175 241.1525 -107.4375 240.8125 C-107.88403931 242.34173096 -107.88403931 242.34173096 -108.33959961 243.90185547 C-109.44282614 247.67813396 -110.54854687 251.45367826 -111.6550293 255.22900391 C-112.1339026 256.86422065 -112.61209596 258.49963668 -113.08959961 260.13525391 C-113.7753999 262.48392405 -114.46362879 264.83187063 -115.15234375 267.1796875 C-115.36592026 267.91307343 -115.57949677 268.64645935 -115.79954529 269.40206909 C-117.32362829 274.58475659 -117.32362829 274.58475659 -118.4375 276.8125 C-124.0475 276.8125 -129.6575 276.8125 -135.4375 276.8125 C-137.1838379 270.81420896 -137.1838379 270.81420896 -137.79801178 268.70465183 C-138.8716417 265.01696144 -139.94527743 261.32927275 -141.0189209 257.6415863 C-143.28691058 249.85161032 -145.55485961 242.0616225 -147.82264614 234.27158737 C-149.15257255 229.70318642 -150.48252893 225.1347942 -151.8125 220.56640625 C-152.21829883 219.1725042 -152.21829883 219.1725042 -152.63229561 217.7504425 C-156.44837743 204.64256518 -160.26593189 191.53511757 -164.08458138 178.42798805 C-165.64028368 173.08797616 -167.19569995 167.74788095 -168.75110531 162.40778255 C-169.98906275 158.15766494 -171.22722063 153.90760593 -172.46585083 149.65768433 C-177.49895276 132.38804122 -182.52740526 115.11763638 -187.4375 97.8125 C-190.52469204 108.06134063 -193.60769024 118.31143872 -196.6875 128.5625 C-196.92156933 129.34158974 -197.15563866 130.12067947 -197.39680099 130.92337799 C-204.67576814 155.15539459 -211.87818772 179.40884531 -219 203.6875 C-219.31194305 204.75093124 -219.31194305 204.75093124 -219.63018799 205.83584595 C-220.04751783 207.25856869 -220.46484635 208.68129182 -220.88217354 210.10401535 C-221.89645013 213.56160719 -222.91098507 217.01912312 -223.92578125 220.4765625 C-224.21802771 221.47229908 -224.21802771 221.47229908 -224.51617813 222.48815155 C-229.74176225 240.28740989 -235.07106377 258.05526791 -240.4375 275.8125 C-246.0475 275.8125 -251.6575 275.8125 -257.4375 275.8125 C-259.41315738 270.67995061 -261.19090294 265.55150085 -262.70800781 260.26342773 C-262.91584176 259.54862747 -263.12367571 258.83382721 -263.33780766 258.09736633 C-264.02502608 255.73111866 -264.70781677 253.36361743 -265.390625 250.99609375 C-265.88335839 249.29639107 -266.37638235 247.5967726 -266.86967468 245.89723206 C-267.92588333 242.25614135 -268.9801705 238.61450201 -270.03292847 234.97241211 C-271.70710639 229.18058429 -273.38551665 223.38998849 -275.06469727 217.59960938 C-276.80149698 211.60991319 -278.53807209 205.6201526 -280.27320862 199.62997437 C-285.24249527 182.47526959 -290.23205745 165.3265152 -295.2286005 148.17973232 C-296.89026646 142.47716543 -298.55063481 136.77422204 -300.21020508 131.07104492 C-301.14012569 127.87548507 -302.07005358 124.67992734 -303 121.484375 C-303.22670065 120.70536646 -303.4534013 119.92635792 -303.68697166 119.12374306 C-306.40774502 109.77519779 -309.13280585 100.42792175 -311.86453915 91.08257294 C-313.5979423 85.15242319 -315.32892292 79.22157032 -317.05803776 73.29016876 C-318.24974308 69.20296086 -319.44481814 65.11675954 -320.64255333 61.03131485 C-321.53443023 57.98534994 -322.4211252 54.93787672 -323.30859375 51.890625 C-323.62920776 50.80106506 -323.94982178 49.71150513 -324.28015137 48.58892822 C-324.71079895 47.10486481 -324.71079895 47.10486481 -325.15014648 45.59082031 C-325.40054184 44.73433899 -325.65093719 43.87785767 -325.90892029 42.99542236 C-326.4375 40.8125 -326.4375 40.8125 -326.4375 37.8125 C-333.3675 37.8125 -340.2975 37.8125 -347.4375 37.8125 C-347.4375 34.1825 -347.4375 30.5525 -347.4375 26.8125 C-338.46607424 26.78925318 -329.49465897 26.7715223 -320.52320957 26.76068783 C-316.35668938 26.75548588 -312.19018991 26.74843745 -308.02368164 26.73706055 C-303.99716426 26.72613564 -299.97066673 26.72020294 -295.94413567 26.71762276 C-294.41368231 26.71578573 -292.88322994 26.7121987 -291.35278511 26.70676994 C-283.65081345 26.68055476 -276.07766131 26.73067412 -268.4375 27.8125 C-268.4375 31.1125 -268.4375 34.4125 -268.4375 37.8125 C-274.3775 37.8125 -280.3175 37.8125 -286.4375 37.8125 C-285.92179443 39.57988525 -285.40608887 41.34727051 -284.87475586 43.16821289 C-282.37455095 51.73705841 -279.87470393 60.30600832 -277.375 68.875 C-277.14452972 69.66504047 -276.91405945 70.45508095 -276.67660522 71.26906204 C-270.81190035 91.37321596 -264.95084771 111.47842824 -259.09765625 131.5859375 C-258.83842817 132.47644995 -258.5792001 133.36696239 -258.31211662 134.28446007 C-255.77942912 142.98501541 -253.24710836 151.68567737 -250.71551418 160.3865509 C-249.77222019 163.62842709 -248.82874316 166.87024999 -247.88523674 170.11206436 C-247.45215726 171.60027553 -247.01916512 173.08851212 -246.5862751 174.57677841 C-243.55610623 184.99442934 -240.50368532 195.40539273 -237.4375 205.8125 C-234.6430343 196.48000327 -231.85184339 187.14652878 -229.0625 177.8125 C-228.84618046 177.08866623 -228.62986092 176.36483246 -228.40698624 175.61906433 C-222.42922858 155.61453422 -216.48015663 135.60167465 -210.56640625 115.578125 C-210.27778465 114.60089981 -209.98916306 113.62367462 -209.69179535 112.61683655 C-206.82797766 102.9193806 -203.96631383 93.22129122 -201.10749054 83.52236176 C-195.62650461 64.92895615 -190.14263093 46.33870335 -184.4375 27.8125 C-178.8275 27.8125 -173.2175 27.8125 -167.4375 27.8125 C-163.49259042 40.14435996 -159.71517311 52.51087187 -156.12109375 64.94921875 C-155.62622541 66.65534909 -155.1311425 68.3614172 -154.63586426 70.06742859 C-153.58817091 73.67770743 -152.54179924 77.28836538 -151.49655151 80.89935303 C-149.85419089 86.57303867 -148.2087995 92.24584235 -146.56274414 97.91845703 C-146.00199879 99.85095212 -145.44125355 101.78344723 -144.88050842 103.71594238 C-144.60154284 104.67731613 -144.32257725 105.63868988 -144.03515816 106.62919617 C-143.18549048 109.55770736 -142.33611282 112.48630254 -141.48680115 115.41491699 C-136.03296241 134.21902182 -130.5540301 153.01577794 -125.06865311 171.81070328 C-124.14696361 174.96886484 -123.22547202 178.12708413 -122.30397606 181.28530216 C-120.0156838 189.12785708 -117.72686176 196.97025721 -115.4375 204.8125 C-113.65707258 201.5415482 -112.57982375 198.2591807 -111.52416992 194.69213867 C-111.15088562 193.43749817 -110.77760132 192.18285767 -110.39300537 190.89019775 C-109.98458903 189.50364227 -109.57624591 188.11706522 -109.16796875 186.73046875 C-108.73512256 185.27047385 -108.30194799 183.81057626 -107.86846924 182.35076904 C-106.69441549 178.39352087 -105.52498845 174.43491887 -104.35639572 170.47605515 C-103.13161003 166.32968564 -101.90260737 162.18456644 -100.67407227 158.03930664 C-98.36587541 150.24870957 -96.06151494 142.45698343 -93.75866795 134.6648035 C-91.24577937 126.16241879 -88.72896386 117.66119857 -86.21182823 109.16007042 C-75.79704518 73.99443338 -75.79704518 73.99443338 -65.4375 38.8125 C-68.4075 38.4825 -71.3775 38.1525 -74.4375 37.8125 C-74.4375 34.5125 -74.4375 31.2125 -74.4375 27.8125 C-62.5575 27.8125 -50.6775 27.8125 -38.4375 27.8125 C-38.4375 28.4725 -38.4375 29.1325 -38.4375 29.8125 C-36.46976745 29.607473 -36.46976745 29.607473 -34.4375 28.8125 C-33.40127303 27.12349159 -33.40127303 27.12349159 -32.875 24.98828125 C-32.63523437 24.20646484 -32.39546875 23.42464844 -32.1484375 22.61914062 C-31.91382813 21.79607422 -31.67921875 20.97300781 -31.4375 20.125 C-28.8430145 11.23674886 -25.87059585 4.73135096 -17.6484375 -0.27734375 C-12.21873564 -2.51253904 -5.4343467 -1.87731977 0 0 Z M-77.4375 135.8125 C-80.04995231 144.62537895 -82.65803695 153.43953503 -85.26052856 162.2553606 C-86.46905902 166.34869713 -87.67909887 170.44157483 -88.89257812 174.53344727 C-90.06322343 178.48108574 -91.22991688 182.4298722 -92.39385986 186.37949181 C-92.83899898 187.88741452 -93.28556927 189.3949155 -93.73358154 190.90198708 C-94.36001669 193.01014394 -94.98138269 195.11973222 -95.6015625 197.22973633 C-95.95686035 198.43108719 -96.3121582 199.63243805 -96.67822266 200.87019348 C-97.56243476 203.79019053 -97.56243476 203.79019053 -97.4375 206.8125 C-82.73065421 218.81692732 -64.09279765 223.68820458 -45.4375 221.8125 C-36.90549133 220.12418733 -30.21644617 215.96171561 -25.05859375 208.93359375 C-21.59404931 202.95815995 -21.41316838 196.92263064 -23.0625 190.3046875 C-28.76661279 174.05815196 -45.51787147 160.34523139 -58.76953125 149.98046875 C-62.48445561 146.96175276 -65.94532832 143.6848826 -69.37988281 140.35229492 C-72.02979266 137.84411812 -73.87655557 136.51720612 -77.4375 135.8125 Z " fill="#000000" transform="translate(386.4375,99.1875)"/>
<path d="M0 0 C3.55495514 0.56171369 4.89836385 1.6570021 7.125 4.4375 C13.96292858 12.56205785 21.41702666 19.5082531 29.81982422 25.9597168 C34.26901528 29.38352255 38.44421508 33.01866709 42.57421875 36.82421875 C45.14434286 39.12946694 47.80243454 41.28322045 50.5 43.4375 C64.78398407 55.08969516 80.65461246 71.7228421 83 91 C84.28055898 108.17919117 78.95195779 123.23976654 67.6875 136.375 C56.13945655 148.4310792 39.31753467 156.56191898 22.46264648 157.07763672 C19.51609023 157.09825432 16.57151664 157.08721272 13.625 157.0625 C12.60277344 157.05798828 11.58054687 157.05347656 10.52734375 157.04882812 C8.01816806 157.037103 5.5091151 157.02069176 3 157 C2.80889648 157.60473145 2.61779297 158.20946289 2.42089844 158.83251953 C1.5403038 161.5998756 0.64529762 164.36236734 -0.25 167.125 C-0.55035156 168.07632813 -0.85070312 169.02765625 -1.16015625 170.0078125 C-3.62763133 177.56773616 -6.15197439 183.43464959 -13 188 C-19.27838179 190.72973121 -24.63696145 190.67716899 -31.0625 188.5 C-37.19270186 185.84078002 -40.28546487 181.95152517 -42.91015625 175.90234375 C-44.92985546 169.23854577 -43.01365961 163.46049125 -41 157 C-40.43724151 155.14591177 -39.87472188 153.29175102 -39.3125 151.4375 C-39.06113281 150.65246094 -38.80976563 149.86742187 -38.55078125 149.05859375 C-37.8707694 146.87215613 -37.8707694 146.87215613 -38 144 C-38.99 143.34 -39.98 142.68 -41 142 C-40.42230764 135.79515611 -39.01699245 130.28066065 -37.0625 124.375 C-36.79759766 123.55515625 -36.53269531 122.7353125 -36.25976562 121.890625 C-34.86506903 117.58540773 -33.43733144 113.29116342 -32 109 C-28.65577804 109.63844237 -26.34716249 110.90883493 -23.5 112.75 C-8.86165187 121.71841358 7.30226072 125.68488552 24.328125 122.34765625 C31.99119266 119.85394848 37.82380222 115.60432757 42 108.6875 C44.33885876 100.06295833 43.29796859 92.82008611 39 85 C31.04657144 72.83473009 19.11323956 62.21111018 7.77734375 53.26171875 C4.38462946 50.49887547 1.155578 47.58785112 -2.0625 44.625 C-2.62340332 44.11235596 -3.18430664 43.59971191 -3.76220703 43.0715332 C-6.19115978 40.81949678 -8.15340326 38.76989512 -10 36 C-9.85935342 27.84249835 -5.93618884 19.18677321 -3.4375 11.48828125 C-2.20367889 7.68048203 -1.07365678 3.85587316 0 0 Z " fill="#525252" transform="translate(320,197)"/>
<path d="M0 0 C5.01301697 3.54579249 9.67568745 7.67680411 11.0065918 13.88354492 C11.92572648 20.85582789 10.7566292 26.29539938 8.625 32.9375 C8.33431641 33.89398438 8.04363281 34.85046875 7.74414062 35.8359375 C7.03315765 38.16702921 6.30592074 40.49159234 5.5625 42.8125 C6.43390625 43.05871094 7.3053125 43.30492187 8.203125 43.55859375 C22.80989085 49.01065403 37.90925795 64.5666854 44.6171875 78.515625 C47.0071969 84.32275529 47.53825497 90.04786092 45.4375 96 C42.61549253 100.23301121 39.48521008 103.17159664 34.5625 104.8125 C28.97785665 105.25051124 24.37349638 104.69538993 19.5625 101.8125 C15.04918395 97.73683884 11.55432073 92.80853589 7.94873047 87.94091797 C-2.71866626 73.63925522 -15.83196851 66.06166529 -33.4375 62.8125 C-39.27750352 62.38734302 -44.94075053 62.36909634 -50.71484375 63.39453125 C-53.4375 63.8125 -53.4375 63.8125 -55.4375 62.8125 C-54.7962977 57.31856211 -53.5336052 52.22744865 -51.9375 46.9375 C-51.71191406 46.16664063 -51.48632812 45.39578125 -51.25390625 44.6015625 C-49.57125235 38.94625235 -49.57125235 38.94625235 -48.4375 37.8125 C-46.75141034 37.74044489 -45.06249341 37.72863932 -43.375 37.75 C-42.45589844 37.75902344 -41.53679687 37.76804688 -40.58984375 37.77734375 C-39.87957031 37.78894531 -39.16929687 37.80054688 -38.4375 37.8125 C-38.4375 35.1725 -38.4375 32.5325 -38.4375 29.8125 C-37.80972656 29.72637451 -37.18195313 29.64024902 -36.53515625 29.55151367 C-34.31802429 29.02923001 -34.31802429 29.02923001 -33.49609375 27.1418457 C-33.29113281 26.43116943 -33.08617187 25.72049316 -32.875 24.98828125 C-32.63523437 24.20646484 -32.39546875 23.42464844 -32.1484375 22.61914062 C-31.91382813 21.79607422 -31.67921875 20.97300781 -31.4375 20.125 C-28.8430145 11.23674886 -25.87059585 4.73135096 -17.6484375 -0.27734375 C-12.21873564 -2.51253904 -5.4343467 -1.87731977 0 0 Z " fill="#525252" transform="translate(386.4375,99.1875)"/>
<path d="M0 0 C0.556875 0.28875 1.11375 0.5775 1.6875 0.875 C3.97532748 2.07539675 3.97532748 2.07539675 6.5 2.6875 C10.21418717 4.63744826 11.1431491 7.2862982 13 11 C9.54691313 9.48729451 7.04375621 7.45279358 4.25 4.9375 C3.45078125 4.22464844 2.6515625 3.51179687 1.828125 2.77734375 C1.22484375 2.19082031 0.6215625 1.60429687 0 1 C0 0.67 0 0.34 0 0 Z " fill="#474747" transform="translate(316,239)"/>
<path d="M0 0 C2 3 2 3 3 6 C2.01 6.66 1.02 7.32 0 8 C-0.66 7.34 -1.32 6.68 -2 6 C-1.34 4.02 -0.68 2.04 0 0 Z " fill="#4A4A4A" transform="translate(355,119)"/>
</svg>
